# xmcd
#
# Track frame offsets: 
#        150
#        15560
#        36427
#        56741
#        73724
#        91303
#        106571
#        123490
#        138730
#        159445
#        178232
#
# Disc length: 2447 seconds
#
# Revision: 0
# Processed by: cddbd v1.5.2PL0 Copyright (c) Steve Scherf et al.
# Submitted via: ExactAudioCopy v0.99pb5
#
DISCID=96098d0b
DTITLE=Henry Lee Summer - Big Drum
DYEAR=2001
DGENRE=Jazz/Funk
TTITLE0=Dancin to the Big Drum
TTITLE1=Since I Met You
TTITLE2=Happy World
TTITLE3=Keep On Smilin
TTITLE4=Shine On Me
TTITLE5=It's All Right'a
TTITLE6=That's What I Like
TTITLE7=What Am I to You
TTITLE8=It's In Your Eyes
TTITLE9=Prime Of Life
TTITLE10=Dancin to the Big Drum(reprise)
EXTD=
EXTT0=
EXTT1=
EXTT2=
EXTT3=
EXTT4=
EXTT5=
EXTT6=
EXTT7=
EXTT8=
EXTT9=
EXTT10=
PLAYORDER=
